<?xml version="1.0" encoding="UTF-8"?>
<svg width="10" height="10" viewBox="0 0 10 10" fill="none" xmlns="http://www.w3.org/2000/svg">
<path d="M9.24207 9.04236C9.50242 8.78201 9.50242 8.3599 9.24207 8.09955L5.94269 4.80017L9.24297 1.49989C9.50332 1.23954 9.50332 0.81743 9.24297 0.55708C8.98262 0.296731 8.56051 0.29673 8.30016 0.55708L4.99988 3.85736L1.69959 0.557078C1.43925 0.296729 1.01714 0.296729 0.756786 0.557079C0.496436 0.817428 0.496436 1.23954 0.756785 1.49989L4.05707 4.80017L0.757691 8.09955C0.497341 8.3599 0.497342 8.78201 0.757691 9.04236C1.01804 9.30271 1.44015 9.30271 1.7005 9.04236L4.99988 5.74298L8.29926 9.04236C8.55961 9.30271 8.98172 9.30271 9.24207 9.04236Z" fill="#404040"/>
</svg>
